<svg xmlns="http://www.w3.org/2000/svg" viewBox="0 0 1200 750" role="img" aria-labelledby="title desc">
  <title id="title">Engineering documentation system visual</title>
  <desc id="desc">A documentation flow showing specs, docs, implementation, review, and ship loops.</desc>
  <rect width="1200" height="750" fill="#fbfbfa"/>
  <rect x="64" y="56" width="1072" height="638" rx="28" fill="#fff" stroke="#e8e8e3"/>
  <text x="104" y="118" fill="#92928c" font-family="Arial, sans-serif" font-size="22" font-weight="700" letter-spacing="4">DOCUMENTATION STUDY</text>
  <text x="104" y="188" fill="#111" font-family="Arial, sans-serif" font-size="64" font-weight="700" letter-spacing="-3">Engineering Notes</text>
  <g transform="translate(104 270)">
    <g>
      <rect width="190" height="136" rx="18" fill="#f7f7f7" stroke="#e6e6e6"/>
      <text x="24" y="48" fill="#111" font-family="Arial, sans-serif" font-size="25" font-weight="700">Spec</text>
      <rect x="24" y="76" width="126" height="10" rx="5" fill="#111" opacity=".1"/>
      <rect x="24" y="102" width="90" height="10" rx="5" fill="#111" opacity=".08"/>
    </g>
    <path d="M204 68h70" stroke="#111" opacity=".22" stroke-width="2"/>
    <g transform="translate(288)">
      <rect width="190" height="136" rx="18" fill="#f4f7ff" stroke="#dfe6f7"/>
      <text x="24" y="48" fill="#111" font-family="Arial, sans-serif" font-size="25" font-weight="700">Docs</text>
      <rect x="24" y="76" width="132" height="10" rx="5" fill="#111" opacity=".1"/>
      <rect x="24" y="102" width="104" height="10" rx="5" fill="#111" opacity=".08"/>
    </g>
    <path d="M492 68h70" stroke="#111" opacity=".22" stroke-width="2"/>
    <g transform="translate(576)">
      <rect width="190" height="136" rx="18" fill="#f4fbf7" stroke="#dcefe4"/>
      <text x="24" y="48" fill="#111" font-family="Arial, sans-serif" font-size="25" font-weight="700">Build</text>
      <rect x="24" y="76" width="126" height="10" rx="5" fill="#111" opacity=".1"/>
      <rect x="24" y="102" width="82" height="10" rx="5" fill="#111" opacity=".08"/>
    </g>
    <path d="M780 68h70" stroke="#111" opacity=".22" stroke-width="2"/>
    <g transform="translate(864)">
      <rect width="190" height="136" rx="18" fill="#fff8ee" stroke="#eee0c9"/>
      <text x="24" y="48" fill="#111" font-family="Arial, sans-serif" font-size="25" font-weight="700">Ship</text>
      <rect x="24" y="76" width="116" height="10" rx="5" fill="#111" opacity=".1"/>
      <rect x="24" y="102" width="92" height="10" rx="5" fill="#111" opacity=".08"/>
    </g>
  </g>
  <g transform="translate(104 486)">
    <rect width="992" height="118" rx="18" fill="#fafafa" stroke="#e8e8e3"/>
    <text x="26" y="48" fill="#777" font-family="Arial, sans-serif" font-size="18" font-weight="700">REVIEW MEMORY</text>
    <rect x="26" y="74" width="278" height="12" rx="6" fill="#111" opacity=".1"/>
    <rect x="334" y="74" width="218" height="12" rx="6" fill="#111" opacity=".08"/>
    <rect x="582" y="74" width="336" height="12" rx="6" fill="#111" opacity=".1"/>
  </g>
</svg>
