<svg width="1600" height="1000" viewBox="0 0 1600 1000" fill="none" xmlns="http://www.w3.org/2000/svg" font-family="Helvetica Neue, Helvetica, Arial, sans-serif">
  <rect width="1600" height="1000" fill="#fbfaf7"/>

  <defs>
    <marker id="arrow" markerWidth="10" markerHeight="10" refX="8" refY="5" orient="auto">
      <path d="M0,1.5 L8,5 L0,8.5 Z" fill="#aaa9a3"/>
    </marker>
  </defs>

  <text x="90" y="100" font-size="21" font-weight="600" letter-spacing="3.5" fill="#aaa9a3">OSLO — AI OPERATING SYSTEM</text>
  <text x="90" y="158" font-size="52" font-weight="500" letter-spacing="-1.5" fill="#1c1c19">Oslo and Hermes</text>
  <text x="90" y="200" font-size="24" fill="#7b7b76">Company workflows turned into repeatable systems</text>
  <line x1="90" y1="240" x2="1510" y2="240" stroke="#e8e6df" stroke-width="2"/>

  <rect x="90" y="300" width="400" height="470" rx="10" fill="#ffffff" stroke="#e8e6df" stroke-width="2"/>
  <text x="122" y="356" font-size="17" font-weight="600" letter-spacing="2.5" fill="#aaa9a3">COMPANY KNOWLEDGE</text>
  <g font-size="25" fill="#1c1c19">
    <line x1="122" y1="405" x2="138" y2="405" stroke="#c9c7bf" stroke-width="3"/><text x="154" y="413">Memory</text>
    <line x1="122" y1="461" x2="138" y2="461" stroke="#c9c7bf" stroke-width="3"/><text x="154" y="469">Engineering docs</text>
    <line x1="122" y1="517" x2="138" y2="517" stroke="#c9c7bf" stroke-width="3"/><text x="154" y="525">Tasks and reviews</text>
    <line x1="122" y1="573" x2="138" y2="573" stroke="#c9c7bf" stroke-width="3"/><text x="154" y="581">BD context</text>
    <line x1="122" y1="629" x2="138" y2="629" stroke="#c9c7bf" stroke-width="3"/><text x="154" y="637">Operations</text>
    <line x1="122" y1="685" x2="138" y2="685" stroke="#c9c7bf" stroke-width="3"/><text x="154" y="693">Security workflows</text>
  </g>

  <line x1="500" y1="535" x2="576" y2="535" stroke="#aaa9a3" stroke-width="3" marker-end="url(#arrow)"/>

  <rect x="590" y="300" width="420" height="470" rx="10" fill="#1c1c19"/>
  <text x="800" y="386" font-size="46" font-weight="500" letter-spacing="-1" fill="#ffffff" text-anchor="middle">Hermes</text>
  <text x="800" y="422" font-size="16" font-weight="600" letter-spacing="3" fill="#8f8f88" text-anchor="middle">OPERATING LAYER</text>
  <line x1="632" y1="456" x2="968" y2="456" stroke="#3a3a35" stroke-width="2"/>
  <g text-anchor="middle">
    <text x="800" y="512" font-size="25" font-weight="500" fill="#ffffff">Memory</text>
    <text x="800" y="541" font-size="18" fill="#8f8f88">context, history, rules</text>
    <text x="800" y="600" font-size="25" font-weight="500" fill="#ffffff">Skills</text>
    <text x="800" y="629" font-size="18" fill="#8f8f88">repeatable work across ops and growth</text>
    <text x="800" y="688" font-size="25" font-weight="500" fill="#ffffff">Connectors</text>
    <text x="800" y="717" font-size="18" fill="#8f8f88">email, docs, socials, internal tools</text>
  </g>

  <line x1="1024" y1="535" x2="1100" y2="535" stroke="#aaa9a3" stroke-width="3" marker-end="url(#arrow)"/>

  <rect x="1110" y="300" width="400" height="470" rx="10" fill="#ffffff" stroke="#e8e6df" stroke-width="2"/>
  <text x="1142" y="356" font-size="17" font-weight="600" letter-spacing="2.5" fill="#aaa9a3">REPEATABLE WORK</text>
  <g font-size="25" fill="#1c1c19">
    <line x1="1142" y1="419" x2="1158" y2="419" stroke="#c9c7bf" stroke-width="3"/><text x="1174" y="427">Messages sent</text>
    <line x1="1142" y1="489" x2="1158" y2="489" stroke="#c9c7bf" stroke-width="3"/><text x="1174" y="497">Records updated</text>
    <line x1="1142" y1="559" x2="1158" y2="559" stroke="#c9c7bf" stroke-width="3"/><text x="1174" y="567">Reports created</text>
    <line x1="1142" y1="629" x2="1158" y2="629" stroke="#c9c7bf" stroke-width="3"/><text x="1174" y="637">Tasks completed</text>
  </g>

  <path d="M 1310 770 L 1310 862 L 290 862 L 290 778" stroke="#aaa9a3" stroke-width="2.5" stroke-dasharray="1 9" stroke-linecap="round" fill="none" marker-end="url(#arrow)"/>
  <rect x="470" y="838" width="660" height="46" fill="#fbfaf7"/>
  <text x="800" y="869" font-size="18" font-weight="600" letter-spacing="2.5" fill="#aaa9a3" text-anchor="middle">FEEDBACK — RESULTS · CORRECTIONS · CONTEXT</text>

  <text x="90" y="948" font-size="19" fill="#7b7b76">Claude Code and Codex form the human review loop. Every run improves the next one.</text>
</svg>
